<svg width="372" height="1796" viewBox="0 0 372 1796" fill="none" xmlns="http://www.w3.org/2000/svg">
<path d="M20.3217 -73.4347C-62.3401 20.2724 -1.34855 66.0347 139.304 207.03C345.91 414.138 365.366 887.496 118.964 767.87C14.9629 717.379 25.3933 562.696 66.031 546.592C163.797 507.85 262.24 746.212 -99.8186 905.837L-410.635 1131.3C317.577 793.258 359.807 1133.21 362.487 1387.03C360.198 1454.61 345.062 1632.86 225.786 1703.81C106.511 1774.77 -109.292 1489.97 -52.0828 1385.1C-28.8966 1342.59 -68.9322 1251.23 -56.07 1457.57C-43.2078 1663.92 -258.042 1791.93 -309.149 1785.69" stroke="#FA6334" stroke-width="19"/>
</svg>
