<svg width="78" height="78" viewBox="0 0 78 78" fill="none" xmlns="http://www.w3.org/2000/svg">
<path d="M31.8204 31.8196C35.5079 28.1327 40.4715 26.004 45.6846 25.8739C50.8976 25.7438 55.9613 27.6222 59.8282 31.1205L60.5639 31.8196L72.0597 43.3186C75.8037 47.0689 77.9347 52.1332 77.9985 57.4319C78.0623 62.7306 76.0539 67.8447 72.4013 71.6841C68.7488 75.5235 63.7409 77.7846 58.4452 77.9854C53.1495 78.1862 47.9848 76.3108 44.052 72.759L43.3203 72.0599L34.6944 63.4347C33.9653 62.7032 33.542 61.7217 33.5105 60.6894C33.479 59.6572 33.8416 58.6517 34.5246 57.8771C35.2077 57.1025 36.16 56.617 37.1881 56.519C38.2163 56.4211 39.2431 56.7181 40.0601 57.3498L40.4423 57.6872L49.0681 66.3124C51.3042 68.5613 54.3285 69.8508 57.4994 69.9072C60.6704 69.9635 63.7386 68.7825 66.0532 66.6145C68.3678 64.4466 69.7467 61.4623 69.8975 58.2946C70.0482 55.127 68.9589 52.0252 66.8606 49.6473L66.3118 49.066L54.816 37.5671C53.6836 36.4346 52.3391 35.5362 50.8595 34.9232C49.3798 34.3103 47.7938 33.9948 46.1922 33.9948C44.5905 33.9948 43.0046 34.3103 41.5249 34.9232C40.0452 35.5362 38.7007 36.4346 37.5683 37.5671C36.8016 38.3075 35.7748 38.7172 34.709 38.7079C33.6432 38.6987 32.6236 38.2712 31.8699 37.5176C31.1163 36.7639 30.6887 35.7445 30.6795 34.6787C30.6702 33.613 31.08 32.5862 31.8204 31.8196ZM5.95086 5.95208C9.63833 2.26515 14.602 0.136464 19.815 0.0063363C25.0281 -0.123791 30.0917 1.75459 33.9586 5.25295L34.6944 5.95208L43.3162 14.5814C44.0452 15.3128 44.4685 16.2944 44.5 17.3266C44.5316 18.3588 44.169 19.3643 43.4859 20.1389C42.8029 20.9135 41.8506 21.3991 40.8224 21.497C39.7943 21.5949 38.7674 21.2979 37.9504 20.6662L37.5683 20.3288L28.9465 11.7076C26.7065 9.48248 23.6908 8.21275 20.5337 8.16559C17.3766 8.11843 14.3243 9.29751 12.0189 11.4548C9.71351 13.612 8.33475 16.5793 8.17268 19.7324C8.01062 22.8854 9.0779 25.9784 11.15 28.3606L11.6987 28.9459L23.1986 40.4449C25.4855 42.7309 28.5868 44.0151 31.8204 44.0151C35.0541 44.0151 38.1554 42.7309 40.4423 40.4449C40.8197 40.0672 41.2678 39.7676 41.761 39.5631C42.2542 39.3586 42.7829 39.2533 43.3168 39.2531C43.8507 39.2529 44.3795 39.3579 44.8728 39.562C45.3662 39.7662 45.8145 40.0655 46.1922 40.4428C46.5699 40.8202 46.8695 41.2683 47.074 41.7615C47.2785 42.2546 47.3838 42.7833 47.384 43.3172C47.3842 43.851 47.2792 44.3797 47.0751 44.8731C46.8709 45.3664 46.5716 45.8147 46.1942 46.1923C42.5067 49.8792 37.5431 52.0079 32.33 52.1381C27.117 52.2682 22.0533 50.3898 18.1865 46.8914L17.4466 46.1923L5.95086 34.6934C2.14053 30.8822 0 25.7138 0 20.3248C0 14.9357 2.14053 9.76327 5.95086 5.95208Z" fill="#464646"/>
</svg>
